<?xml version="1.0" encoding="utf-8"?>
<!-- Generator: Adobe Illustrator 15.1.0, SVG Export Plug-In . SVG Version: 6.00 Build 0)  -->
<!DOCTYPE svg PUBLIC "-//W3C//DTD SVG 1.1//EN" "http://www.w3.org/Graphics/SVG/1.1/DTD/svg11.dtd">
<svg version="1.1" id="Layer_1" xmlns="http://www.w3.org/2000/svg" xmlns:xlink="http://www.w3.org/1999/xlink" x="0px" y="0px"
	 width="233px" height="102px" viewBox="-103.998 -41 233 102" enable-background="new -103.998 -41 233 102" xml:space="preserve">
<g id="Globe">
	<path fill="#CBD0E0" d="M-47.192,53.022c23.978,0,43.434-19.517,43.434-43.535c0-24.063-19.456-43.535-43.434-43.535
		c-23.973,0-43.429,19.517-43.429,43.535C-90.621,33.551-71.166,53.022-47.192,53.022L-47.192,53.022z"/>
	<path fill="none" stroke="#FFFFFF" stroke-width="1.6433" stroke-miterlimit="10" d="M-47.01-28.653
		c5.323-2.321,19.055-1.963,26.121,3.517 M-30.508-30.707c-3.398-1.07-11.939-1.292-16.502,2.094 M-46.787-28.699
		c-15.925-2.629-26.48,2.941-33.278,9.804 M-31.177,49.995C-9.528,35.509-16.194-7.4-47.324-28.79 M-63.158,50.031
		c-18.923-13.634-7.471-62.467,16.147-78.685 M-64.1-30.616c-10.378,5.748-5.096,17.913,17.94,17.913
		c17.576,0,28.269-12.387,17.89-16.979 M-76.712-22.417c-6.22,9.935,7.517,20.632,30.553,20.632c17.576,0,34.438-9.183,29.833-19.34
		 M-85.12-11.725c-2.325,12.478,15.925,21.57,38.961,21.57c17.576,0,39.984-8.158,36.809-21.656 M-89.907,1.601
		c3.04,11.762,20.666,20.002,43.748,20.002c17.576,0,41.508-8.019,41.372-21.829 M-3.8,11.27
		c-2.33,14.087-25.366,21.257-43.079,20.813c-24.064-0.58-38.646-6.508-43.702-20.591 M-45.623-34.002
		c-0.851,0.268-1.656,3.341-1.388,5.349c0,0,2.234-4.415,5.364-5.036 M-47.01-28.653c6.352-1.428,27.195,1.736,34.083,11.358
		 M-46.924-28.834c1.879-2.407,6.443-4.542,9.259-4.143 M-46.924-28.653c-0.578-1.65-1.651-4.233-3.444-5.303 M-55.646-33.245
		c3.176-0.091,8.053,3.209,8.859,4.5 M-60.701-31.862c3.804-0.671,10.96,0.934,13.914,3.164 M-69.778-27.674
		c3.176-2.498,15.028-4.143,22.945-1.024 M-87.718-6.108c5.815-13.77,23.35-24.063,40.931-22.59 M-90.534,12.475
		c-0.269-15.284,16.729-40.417,43.747-41.219 M-85.839,29.272c-5.724-23.75,8.813-49.953,38.829-57.926 M-73.09,44.42
		c-20.888-26.552,4.164-65.323,26.08-73.073 M-47.01-28.653c-13.554,13.811-22.768,74.986-7.648,81.005 M-48.443,53.022
		c-5.992-0.398-0.4-79.809,1.433-81.635 M-3.845,12.339C-3.536-4.549-18.25-27.987-47.501-28.88 M-8.455,29.227
		c7.426-24.997-4.427-48.837-38.87-57.971 M-21.203,44.42C4.877,19.155-21.38-19.611-47.279-28.79 M-47.279-28.79
		c16.148,16.444,30.594,72.494,7.558,81.187 M-45.896,53.022c15.388-0.979,1.074-79.36-1.383-81.812 M-87.718,25.302
		c8.904,16.58,62.447,25.273,81.234-0.525 M-81.813,35.908c12.167,14.269,54.972,15.954,68.212,1.16 M-63.203,49.949
		c7.066,3.119,24.469,3.291,32.026,0"/>
	<path fill="#FFFFFF" d="M-38.961,51.817c-0.132,0.045,0.719-0.227,0.719-0.399c0-0.172,0.578-0.317,0.578-0.317
		s1.033,0.146,0.719-0.217c-0.314-0.363,0.578-0.671,0.578-0.671h0.765c0,0-0.091-0.707,0.446-0.707
		c-0.045,0.525,0.669-0.091,0.669-0.091s0.628,0.181,0.628-0.046c0.045-0.227,0.714-0.263,0.714-0.263
		c0.136,0.309,0.582-0.453,0.582-0.453s-0.805-0.271,0.137-0.398c0.938-0.137,0.537-0.444,0.4-0.535
		c-0.132-0.091,0.446-0.444,0.446-0.444l0.451,0.046c0,0,0.805-1.024,1.115-0.272c0.314,0.762,0.673-0.444,0.673-0.444l0.446-0.308
		c0,0,0.76,0.09,0.45-0.272c-0.314-0.354,0.492-0.444,0.806-0.58c0.268-0.091,0.537-0.616,0.623-0.889
		c0.091-0.271,0.628-0.217,0.628-0.217l0.269,0.081c0,0-0.045-0.489,0.091-0.716c0.132-0.218,0.533-0.082,0.533-0.082l0.268-0.354
		c-0.354-0.408,0.091-0.635,0.091-0.635s0.446-0.435,0.446-0.752c0.583-0.091,0.805-0.535,0.805-0.535s0.405,0.091,0.537-0.091
		c0.136-0.126,0.136-0.534,0.136-0.534s0.851,0.181,0.851-0.227c0.4,0.054,0.491-0.263,0.491-0.399c0-0.127,0.583-0.671,0.624-0.58
		c0.091,0.091,0.673-0.036,0.628-0.127c-0.091-0.091,0.091-0.362,0.091-0.362s0.805,0.136,0.892-0.263c-0.268-0.263,0-0.671,0-0.671
		l0.269-0.082l0.045-0.453c0,0,0.673-0.398,0.714-0.843c-0.132-0.317,0.451-0.58,0.451-0.988c0-0.398-0.045-0.398,0.269-0.525
		c0.268-0.137,0.4-0.363,0.268-0.853c0.223-0.091,0.132-0.398,0.086-0.752c-0.041-0.354,0.405-0.444,0.76-0.444
		c-0.087-0.227,0.182-0.453,0.313-0.453c0.137-0.036,0.046-0.617,0.046-0.617l0.537-0.054l-0.091-0.345c0,0,0.719-0.544,0.405-0.716
		c0-0.444,0.269-0.499,0.269-0.499s0.4-0.081,0.269-0.263c-0.137-0.172,0.132-0.753,0.268-0.889c0.132-0.136,0.36-0.444,0.178-0.534
		c-0.178-0.091-0.537-0.535-0.4-0.626c0.132-0.091,0.314-0.227,0.314-0.354c0-0.136-0.537-0.309-0.719,0.036
		c-0.178,0.362-0.806,0.182-1.074-0.081c-0.223-1.115-1.206-0.046-1.383,0.136c-0.182,0.172-0.628-0.091-0.628-0.091
		s-0.178-0.489-0.805,0.398c-0.628,0.889-0.537,0.218-0.314-0.362c0.223-0.571-0.446-0.081-0.446-0.081s-0.268,0.172-0.76,0.081
		c0.086-0.308-0.537-0.308-0.851,0.055c-0.178-0.272-0.359,0.58-0.446,0.354c-0.091-0.227-0.496,0.354-0.583,0.625
		c-0.091,0.264-0.76,0.091-1.028,0.091s-0.491,0.218-0.628,0.354c-0.132,0.136-0.76,0.046-0.76,0.046S-24.647,29-24.333,29
		c0.269,0,0.583-0.489,0.491-0.798c-0.086-0.271,0.492-0.489,0.451-0.67c-0.045-0.182,0.223-0.354,0.491-0.49
		c0.269-0.127,0.31-1.024,0.31-1.024s-0.223,0.227-0.264,0.354c-0.091,0.137-1.074,0.055-0.941-0.09
		c0.136-0.127,0.091-0.753,0.091-0.753l-0.537-0.398c0,0-0.941-0.091-0.941-0.58c0-0.49-0.446-0.408-0.583-0.091
		c-0.223-0.046-0.355,0.752-0.355,0.534c0-0.217-0.851-0.797-0.851-0.271c0.046,0.489-0.805,0.317-0.805,0.317s-0.851,0.489-0.896,0
		c-0.086-0.489-0.982-0.444-0.846-0.843c0.086-0.454-1.028-0.671-1.256-0.671c-0.223,0-0.714-0.272-0.086-0.762
		c0.624-0.489-0.851-0.707-0.896-0.354c-0.091,0.354-0.446,0.58-0.492,0.354c-0.045-0.218-0.628-0.091-0.76-0.036
		c-0.136,0.081-0.182,0.979-0.182,0.979l-0.178-0.398c0,0-0.983,0.263-1.028,0c-0.045-0.272-0.983-0.408-1.296-0.146
		c-0.269,0.227-1.028,0.091-0.983-0.354c0.086-0.444-0.896-1.069-0.896-1.069s-0.446,0.317-0.359,0.58
		c0.091,0.263,0.269,0.753,0.137,0.671c-0.137-0.091-0.628-0.045-0.583,0.045c0.091,0.091,0.269,0.399-0.045,0.617
		c-0.269,0.227,0,0.453,0.045,1.033c0.045,0.525-0.851,0-0.851,0s0.314-0.544-0.041-0.626c-0.359-0.09,0.178-0.444,0.492-0.671
		c0.309-0.227-0.182-0.316-0.359-0.716c-0.178-0.398-0.583-0.127-0.583-0.127s-0.086,0.671-0.314,0.354
		c-0.269-0.317-0.446-0.136-0.537,0.091c-0.309,0.716-0.446,0.398-0.846,0.398c-1.21,0.581-1.028,1.024-0.719,0.935
		c0.269-0.091,0.182,0.362,0.182,0.362s-0.269,0-0.451,0c-0.177,0-0.177,0.036-0.223,0.671c-0.046,0.661-0.806,0-0.806-0.146
		c0-0.127,0.137-0.525-0.314-0.435c-0.446,0.09-0.446-0.227-0.805-0.272c-0.269-0.045-0.983,0.272-1.342,0.626
		c-0.355,0.354-1.028,0.172-1.069-0.137c-0.091-0.308-0.496-0.534-0.805-0.489c-0.269,0.046-0.182-1.378-0.182-1.378
		s-0.846-0.453,0.091-0.716c0.937-0.263,0.132-1.967,0.132-1.967s-0.805,0.271-0.669-0.037c0.091-0.308,0.669-0.625,0.091-0.67
		c-0.628-0.091-1.388-0.309-1.524-0.091c-0.132,0.227-0.846,0.271-0.846,0.045c0.041-0.263-0.182-0.398-0.405-0.354
		c-0.223,0.036-0.045-0.798-0.045-0.798s-1.474-0.544,0.091-0.407c0.359-0.399,0.132-1.07,0.132-1.07s0.496-0.081,0.359-0.716
		c-0.132-0.671,0.269-0.436,0.491-0.436c0.269,0,0.269-0.58-0.491-0.498c-0.091-0.354-0.628-0.535-0.851-0.173
		c-0.177,0.354-0.714,0.49-1.251,0.436c-0.537-0.082-0.269,1.342-0.269,1.342s-0.314,0.489-0.628,0.453
		c-0.268-0.055-0.846-0.055-0.714,0.218c0.091,0.271-1.388,0.09-1.388,0.09s-0.578-0.362-0.668-0.09
		c-0.091,0.271-0.537-0.707-0.537-0.707s-0.76-0.091-0.583-0.454c0.178-0.308-0.314-0.616-0.314-0.616s0.451-0.807-0.045-1.342
		c-0.491-0.534-0.532-1.518-0.269-1.559c0.269-0.046,0.314-0.494,0.314-0.494s0.537,0.091,0.451-0.132
		c-0.091-0.222-0.045-0.671,0.086-0.934c0.091-0.271-0.086-0.313-0.355-0.671c-0.269-0.358,0.355-0.58,0.31-1.024
		c-0.041-0.444,0.268-0.091,0.359-0.358c0.091-0.267,1.074,0.045,1.074,0.045s0.4-0.045,0.314-0.267
		c-0.091-0.268,0.537-0.045,0.537-0.045s0.269-0.712,0.669-0.045c0.405,0.671,0.987,0.091,0.987,0.091l0.269,0.535
		c0,0,0.938-0.222,0.938,0.045c0,0.267,1.296,0.267,0.668-0.358c-0.668-0.621-0.805-0.267-0.805-0.267l-0.177-0.444
		c0,0,2.552-0.399,2.593-0.045c0.045,0.358,0.537,0.49,0.537,0.49s1.434-0.177,1.434,0.09c0,0.268,0.177,1.292,0.359,1.115
		c0.177-0.181,0.132,0.667,0.132,0.667s0.359,0.671,0.491,0.448c0.137-0.271,0.405,0.621,0.269,0.712
		c-0.132,0.086,1.028,0.757,0.896,0c-0.091-0.757-0.491-0.848-0.405-1.024c0.091-0.222,0.136-0.893-0.086-1.024
		c-0.269-0.091-0.091-0.848-0.451-1.07c-0.355-0.227-0.31-1.428-0.31-1.428s0.355-0.535,0.669-0.535s0.314-0.358,0.314-0.358
		l-0.091-0.621c0,0,0.537-0.181,0.537,0.086c0,0.268,0.896-0.489,0.896-0.489s0.086-0.667,0.269-0.444
		c0.223,0.222,0.851-0.313,0.851-0.489s0.446-0.358,0.178-0.979c-0.269-0.625-0.178-1.029-0.091-1.337
		c0.091-0.268,0.628-0.848-0.045-0.983c-0.223-0.041,0.537-0.444,0.628-0.399c0.132,0.086,0.537,0.086,0.446-0.444l0.314-0.449
		c0,0,0.446,0.848,0.673-0.267c0.578-0.086,0.983,0.181,1.074-0.132c0.086-0.313-0.091-0.625-0.268-0.757
		c-0.137-0.09-0.851-0.403-0.137-0.802c0,0,0.091-0.358,0.223-0.358c0.091,0,0.673-0.045,0.851-0.313
		c0.132-0.267,0.851-0.621,0.851-0.621c0.354-0.358,0.805-0.802,0.937-0.716c0.137,0.091-0.086,0.49-0.269,0.671
		c-0.223,0.131-0.086,1.736,0.628,0.131c0.628-0.58,1.074-0.802,1.52-0.934c0.45-0.136,1.565-1.161,0.627-0.848
		c-0.941,0.268-1.074,0.358-0.805,0s-0.091-0.625-0.942,0.444c-0.446-0.086-0.491-0.444-0.714-0.444
		c-0.223,0-0.582-0.444-0.446-0.625c0.132-0.222,1.388-2.316-0.359-1.201c-0.446,0.625-0.851,0.625-1.074,0.711
		c-0.446,0.449-2.011,0.938-1.028,0.136c0.583-0.58,0.805-0.848,1.165-0.802c0.578-0.58,1.161-1.024,1.52-0.938
		c0.359,0.091,1.52,0.49,1.656-0.131c0.132-0.625,0.354-0.625,0.714-0.625c0.359,0,0.491,0.136,0.714-0.444
		c0.223-0.58-0.268-1.428-1.296-1.514c-0.355,0.444-0.938,0.934-1.16-0.489c-0.228-1.428-1.388-0.938-1.388-0.938
		s-0.628-0.268-0.851-1.201c-0.223-0.938-1.206-1.024-1.206-0.09c0,0.934-1.747,0.131-1.656-0.444
		c0.091-0.58-1.074-1.07-1.565-1.296c-0.36,0.671-0.942-0.131-0.942-0.131s-1.565-0.58-0.714,0.711
		c-0.583,0.848-0.137,1.292-0.137,1.292c-0.132,0.449-0.086,0.449,0.496,0.802c0.578,0.358,0.355,1.518,0,1.74
		c-0.359,0.222-0.851,1.781-0.628,2.583s-1.028,0.268-1.165-0.358c-0.132-0.621-0.268-2.361-1.565-2.226
		c-1.297,0.131-1.16-0.848-2.502-0.938c-1.388-0.086-1.747-2.67-1.388-2.715c0.359-0.09,1.52-0.625,1.656-1.069
		c0.132-0.449,0.623-0.802,1.028-0.848c0.355-0.091,0.668-0.625,0.805-0.136c0.132,0.494,0.938,0.716,1.16,0.581
		c0.228-0.132-0.446,0.625,0.137,0.625c0.582,0,0.446-0.581,0.446-0.581s1.074-0.444,0.091-0.625
		c-1.028-0.222-0.582-0.711-0.805-1.024c0.851-0.444,1.388-1.156,0.714-1.201c-0.669-0.091-0.355-0.49-0.669-0.49
		c-0.269,0-1.028,1.201-1.747-0.09c-0.714-1.292,0-1.383-0.355-1.428c-0.359-0.086-1.028-0.802-0.805-1.024
		c0.223-0.222-0.806-0.444-0.942,0.09c-0.132,0.49,0.45,0.802,0.805,0.934c0.359,0.136,0.091,0.803-0.269,0.848
		c-0.354,0.091,1.21,0.848-0.354,1.024c-1.565,0.136-1.879-0.354-1.879-0.354l-0.45,0.621l-0.938-0.576c0,0-0.851-0.58-1.206-0.449
		c-0.359,0.136-1.165-0.934-1.165-1.292c0-0.354-0.582,3.209-1.028-0.934c-1.21-0.625-1.656,0-1.656,0s-0.446-0.716-1.028-1.292
		c-0.583-0.58,0.132-2.588-1.165-2.099c-1.296,0.494-1.651-0.222-1.651-0.222s-1.033,1.872-2.016,0.58
		c-1.028-1.292-0.851-0.131-0.851-0.131s-0.805,0.086-0.805,0.49c0,0.444,0.091,0.934-0.086,1.024
		c-0.137,0.091,1.074,0.222,1.074,0.222l-2.238,0.268c0,0-0.086,0.222-0.583,0.489c-0.492,0.268-0.846,0.848-0.714,1.206
		c0.136,0.354-0.714,0.621-0.583,1.292c0.137,0.621-0.937-0.091-1.429,0c-0.491,0.086-0.805,0.222-1.21,0
		c-0.446-0.222-0.851,0-0.269,0.354c0.583,0.358,0.851,0.136,1.297,0.227c0.45,0.086,0.805,0.444,1.388,0.354
		c0.582-0.086,0.851-0.621,1.296-0.489c0.451,0.136,0.492-1.292,1.21-1.024c0.714,0.268,1.297-0.625,1.297,0.091
		c0,0.711-0.492,1.736,0.223,1.872c0.714,0.132,0.714,1.292,0.269,1.646c-0.446,0.358-0.805,0.938-0.359,0.938
		c0.45,0,0.491-0.489,0.719-0.136c0.223,0.358,0.223,0.489,0,0.802c-0.228,0.268-0.942,0.358-1.033,0.802
		c-0.086,0.444-0.269,1.16-0.086,1.428c0.223,0.268,0.355,1.024,0.086,1.382c-0.269,0.354-1.028,0.444-0.714,0.934
		c0.269,0.49,1.21,0.222,1.21,0.712c0,0.489-0.137,1.16-0.451,1.292c-0.269,0.136-0.805,0.358-0.805,0.716
		c0,0.354-0.223,1.201-0.714,1.423c-0.492,0.222-1.388,0.938-1.028,1.292c0.359,0.358-0.492,1.383-0.492,1.383
		c0.087,0.267-0.223,0.847-0.313,1.246c-0.091,0.403-0.091,0.449-0.137,0.802c-0.086,0.358,0.182,0.625,0.537,0.671
		c0.45,0.58-0.178,0.444-0.446,0.222c-0.268-0.222-0.314,0.268-0.045,0.625c0.269,0.354-0.086,0.888,0.091,1.201
		c0.177,0.313,0.177,1.201,0.668,1.247c0.451,0.045,0.628,0.358,0.583,0.625c0,0,0.673,0.58,0.451,0.802
		c-0.228,0.222-0.314,1.382,0.086,1.559c-0.178,0.09,0.223,0.489,0.177,0.711c-0.041,0.222-0.177,0.136,0.182,0.848
		c0.355,0.671-0.091,0.625-0.091,0.625l0.446,0.268c0,0-0.223,0.086-0.446,0.086c-0.223,0-0.045,0.535,0.223,0.802
		c-0.269,0.268,0.091,0.58,0.091,0.757c0,0.182,0.269-0.086,0.269-0.086l-0.177,0.399c0,0,0.268,0.535,0.268,0.802
		c-0.045,0.268,0.4,0.403,0.355,0.58s0.091,0.625,0.537,0.802c0.45,0.178,0.583,0.581,0.583,0.581l0.091-0.223l-0.137-0.494
		c0,0-0.446-0.53-0.268-0.666c0.136-0.136-0.046-0.848-0.178-0.979c-0.136-0.136-0.223-0.983-0.091-1.16
		c0.136-0.177-0.178-0.802-0.4-0.848c-0.223-0.086-0.269-0.757-0.223-1.024c0.041-0.268-0.269-0.49-0.45-0.621
		c-0.178-0.136-0.269-0.358-0.086-0.625c0.132-0.268-0.046-0.535-0.046-0.757s0.269-0.625,0.4-0.177
		c0,0.489,0.628,0.843,0.628,0.843s0.091,0.938,0,1.292c-0.091,0.358,0.583,1.029,0.446,1.428c-0.132,0.444,0.45,0.358,0.491,0.848
		c0.091,0.489,0,1.292,0.805,1.383c0.806,0.086,0.451,0.443,0.137,0.575c-0.269,0.136-0.137,0.58,0.583,0.489
		c0.714-0.086-0.228,0.671,0.623,0.938c0.851,0.268-0.086,0.803,0.137,1.024c0.223,0.222,0.132,0.934-0.137,0.934
		s-0.578,0.136,0.091,0.489c0.669,0.363,0.223,0.626,0.223,0.626s0.446,0.807,1.074,1.069c0.673,0.263,0.492,0.58,1.165,0.626
		c0.668,0.09,1.16,0.09,1.16,0.354c0,0.271-0.132,0.625,0.582,0.716c0.714,0.091,0.942,0.091,1.028,0.354
		c0.091,0.263,0.851,0.227,0.806,0.499c-0.091,0.263,0.714-0.499,0.714-0.499s0.359,0.263,0.942,0.263
		c0.582,0,0.805,0.671,0.851,0.58c0.086-0.081-0.091,0.807,0.355,0.853c0.45,0.091,0.583,0.852,0.583,0.852s1.074-0.362,1.565-0.09
		c0.491,0.263,1.297-0.137,1.433,0.263c0.132,0.444-0.091,1.024,0.583,0.934c0.624-0.091,0.269,1.206,0.446,1.033
		c0.132-0.227,0.269,0.571,0.583,1.016c0.269,0.453,0.583-0.444,0.846,0.227c0.273,0.625,0.583,0.489,0.451,0.934
		c-0.137,0.453,0.805-0.218,0.851,0.227c0.086,0.444,0.624-0.136,1.028,0c0.355,0.136,1.028,0.354,1.297,0
		c0.268-0.354,0.937-1.024,0.851-0.444c-0.091,0.58,0.269,0.444,0.269,0.444c-0.091,0.798,0.846-0.091,0.578,3.2
		c-0.354,0.852-0.846,0.498-1.296,0.58c-0.446,0.091,0.582,0.671-0.578,1.215c-1.165,0.571-1.21,1.559-0.942,1.731
		c0.269,0.136,0.269,0.716,0.942,0.716c0.624,0-1.033,0.489-1.033,0.489s-0.491,0.707-0.132,1.024
		c0.359,0.263-0.492,0.844,0.714,0.934c0.091,0.49,1.028,0.272,1.028,0.853s0.582,0.843,0.582,0.843l0.269,0.227l-0.223,0.436
		c0,0,0.627,0.271,0.446,0.671c-0.223,0.362,0.45,0.58,0.805,0.453c0.359-0.146-0.355,1.731,1.028,1.649
		c1.388-0.09,1.074,0.218,0.851,0.49c-0.223,0.263,1.028,0.127,1.297,0.081c0.269-0.081,0.269,0.843,0.805,0.58
		c0.492-0.263,0.583,1.024,0.091,1.424c-0.492,0.453,0.223,0.58-0.137,0.807c-0.355,0.227-0.223,0.716,0.091,0.843
		c0.268,0.136,0.359,0.489,0.359,0.489l-0.673,0.272c0,0-0.714,0.444-0.355,0.707c-0.451,0.227-0.851,0.489-0.583,0.716
		s-0.719,0.091-0.45,0.934c0.268,0.853-0.355,0-0.492,0.717c-0.132,0.716-0.714,0.716-0.714,0.716
		c-0.268-0.091-0.582-0.399-0.359,0.58c-0.269,0.263-0.355,0.616-0.355,0.616s0.355,0.363-0.314,0.453
		c-0.673,0.091,0,0.264,0.223,0.264c0.223,0.045-0.314,0.263-0.446,0.443c-0.091,0.227-0.223,0.046-0.359,0
		c-0.132-0.036-0.359,0.272-0.178,0.454c0.223,0.172,0.269,0.435,0.269,0.435c1.342-0.127,2.685-0.309,3.981-0.58L-38.961,51.817
		L-38.961,51.817z"/>
	<path fill="#FFFFFF" d="M-38.693,21.295c0.045,0.136-0.223,0.444-0.223,0.444s-0.045,0.263,0.182,0.317
		c0.086,0.263,0.264,0.58,0.31,0.091c0.091-0.49-0.132-0.671,0.045-0.762C-38.202,21.295-38.779,21.077-38.693,21.295
		L-38.693,21.295z"/>
	<path fill="#FFFFFF" d="M-67.99-10.387c0.137,0.358,0.583,0.802,0.446,1.206c-0.132,0.444-0.846,0.621-0.937,0.131
		c-0.091-0.489-0.091-0.802-0.492-1.024c-0.45-0.222,0-1.201,0.223-0.934C-68.572-10.655-67.676-11.099-67.99-10.387L-67.99-10.387z
		"/>
	<path fill="#FFFFFF" d="M-71.343-18.319c0.177,0.091,0.354,0.313,0.578,0.227c0.228-0.09,0.314-0.449,0.091-0.494
		c-0.223-0.041-0.359-0.041-0.446-0.268c-0.091-0.222-0.583,0-0.446,0.091C-71.479-18.627-71.703-18.138-71.343-18.319
		L-71.343-18.319z"/>
	<path fill="#FFFFFF" d="M-67.721-19.566c-0.045,0.177,0.177,0.222,0.314,0.313c0.132,0.091,0.177-0.313,0.177-0.313
		s-0.045,0.091-0.132-0.267c-0.045-0.399-0.182-0.313-0.269-0.091C-67.63-19.833-67.499-19.656-67.721-19.566L-67.721-19.566z"/>
	<path fill="#FFFFFF" d="M-67.407-18.673c-0.223,0.222-0.182,0.444,0.045,0.399c0.223-0.045,0.31-0.268,0.223-0.268
		C-67.275-18.542-67.139-18.94-67.407-18.673L-67.407-18.673z"/>
	<path fill="#FFFFFF" d="M-67.676-19.031c-0.177,0.09-0.091,0.177,0,0.177c0.086,0-0.091,0.181-0.177,0.136
		c-0.091-0.09-0.091-0.267-0.046-0.267C-67.813-18.94-67.899-19.298-67.676-19.031L-67.676-19.031z"/>
	<path fill="#FFFFFF" d="M-68.081-20.055c-0.086,0.091,0.045,0.222,0.136,0.222c0.091,0,0.091,0.222-0.045,0.136
		c-0.136-0.09-0.269-0.313-0.223-0.313C-68.126-19.964-68.436-20.368-68.081-20.055L-68.081-20.055z"/>
	<path fill="#FFFFFF" d="M-73.941-21.215c-0.223,0.222-0.178,0.449,0.045,0.403s0.314-0.268,0.223-0.268
		C-73.805-21.08-73.713-21.483-73.941-21.215L-73.941-21.215z"/>
	<path fill="#FFFFFF" d="M-74.209-21.66c-0.177,0.091-0.086,0.177,0,0.177c0.091,0-0.086,0.181-0.177,0.136
		c-0.091-0.09-0.091-0.267-0.045-0.267C-74.387-21.569-74.432-21.927-74.209-21.66L-74.209-21.66z"/>
	<path fill="#FFFFFF" d="M-74.164-22.104c0,0.086,0.091,0.086,0.182,0.177c0.086,0.045,0.086-0.177,0.086-0.177
		s-0.045,0.045-0.045-0.136c-0.041-0.177-0.086-0.131-0.132-0.045C-74.119-22.24-74.073-22.149-74.164-22.104L-74.164-22.104z"/>
	<path fill="#FFFFFF" d="M-73.358-20.5c-0.178,0.041-0.132,0.131,0,0.131c0.091,0-0.086,0.136-0.178,0.091
		c-0.136-0.091-0.136-0.222-0.045-0.222C-73.491-20.458-73.582-20.681-73.358-20.5L-73.358-20.5z"/>
	<path fill="#FFFFFF" d="M-73.672-22.861c-0.178,0.041-0.132,0.131,0,0.131c0.091,0-0.086,0.136-0.178,0.091
		c-0.091-0.045-0.132-0.181-0.045-0.136C-73.85-22.775-73.941-22.997-73.672-22.861L-73.672-22.861z"/>
	<path fill="#FFFFFF" d="M-73.268-23.31c-0.177,0.181-0.091,0.222,0.091,0.222c0.178,0,0.269-0.268,0.269-0.268
		S-73.222-23.708-73.268-23.31L-73.268-23.31z"/>
	<path fill="#FFFFFF" d="M-72.194-24.157c-0.177,0.091-0.091,0.182,0,0.182s-0.091,0.177-0.177,0.131
		c-0.091-0.086-0.091-0.268-0.046-0.268C-72.33-24.066-72.371-24.379-72.194-24.157L-72.194-24.157z"/>
	<path fill="#FFFFFF" d="M-71.166-21.882c0.091,0.045,0.177,0.131,0.269,0.091c0.091-0.045,0.132-0.227,0.045-0.227
		c-0.091,0-0.182,0-0.223-0.132c-0.045-0.09-0.268,0-0.182,0.045C-71.256-22.059-71.343-21.836-71.166-21.882L-71.166-21.882z"/>
	<path fill="#FFFFFF" d="M-32.341-6.644c-0.086,0.313,0.269,0.625,0.491,0.444c0.228-0.177,0.806-0.888,0.405-0.888
		c-0.405,0-0.673,0-0.673,0l-0.31-0.49c0,0-0.269,0.308-0.491-0.449c-0.273-0.757-0.673,0.091-0.673,0.091s-0.178-0.49-0.314-0.49
		c-0.132,0-0.624-0.268-0.714,0.086c-0.091,0.358-0.583,0.625-0.446,0.938c0.132,0.268-0.314,0.711-0.182,0.711
		c0.136,0-0.846,0.757,1.028,0.182c0.537-0.449,0.851-0.268,0.851-0.268l0.359,0.399c0,0-0.091,0.403,0.045,0.313
		c0.132-0.09,0.355-0.177,0.31-0.444C-32.696-6.775-32.341-6.644-32.341-6.644L-32.341-6.644z"/>
	<path fill="#FFFFFF" d="M-38.961-26.161c1.028,0.091,1.925,0.444,2.102,1.07c0.137,0.625,0.628,1.024,1.074,1.16
		c0.451,0.132,0.451,0.802,0.851,0.802c0.446,0,1.743-0.136,1.028,1.07c-0.714,1.201-0.355,1.514-0.355,1.514l-0.269,1.383
		c0,0,0.938,1.292,0.714,1.423c-0.223,0.136,0.669,0.938,0.669,0.938s0.582,0.489-0.132,0.666c-0.714,0.136,0.132,0.49,0.132,0.49
		s-0.846,0.268-1.565-0.354c-0.714-0.671-1.028-0.671-1.429-0.671c-0.405,0-0.228-0.848-0.805-0.934
		c-0.583-0.091-1.524-0.227-1.433-0.802c0.091-0.58-0.269-0.938-0.583-1.161c-0.269-0.222,0.359-0.711,0.359-0.711
		s-0.446-0.848-0.851-0.091c-0.446,0.802-0.714-0.666-0.714-0.934c0-0.267-0.492-0.58-0.806-0.58c-0.268,0,0.223-0.848-0.446-0.848
		c-0.628,0-1.21-0.131-1.21-0.58c0-0.444-1.429-0.086-1.788-0.086c-0.36,0-0.714-1.206-1.565-1.07c-0.851,0.131,0-0.848,0.624-1.024
		c0.628-0.136,1.165-0.802,1.165-0.802s0.583-1.16,1.028-1.206c0.446-0.086,0.359,0.58,0.091,0.848
		c-0.268,0.267,0.446,0.802,0.806,0.222c0.355-0.581,1.074-1.514,1.206-0.934c0.137,0.576,1.028,0.086,1.028,0.712
		C-40.167-25.938-38.961-27.23-38.961-26.161L-38.961-26.161z"/>
	<path fill="#FFFFFF" d="M-33.592-25.091c-0.223,0.222-0.178,0.444,0.045,0.403c0.223-0.045,0.314-0.268,0.223-0.268
		C-33.415-24.955-33.324-25.358-33.592-25.091L-33.592-25.091z"/>
	<path fill="#FFFFFF" d="M-45.131-17.114c-0.492,0-0.806,0.581,0.354,0.621c1.165,0.091,1.565-0.131,1.793,0.268
		c0.223,0.449,0.937,0.58,1.429,0.58c0.491,0,1.52-0.131,0.942-0.58c-0.583-0.444-0.719-1.024-1.297-1.024
		c-0.583,0-0.583-0.802,0.086-0.49c0.628,0.268,1.747-0.934,0.446-0.621c-1.297,0.267-0.578-0.227-0.805-0.494
		c-0.223-0.268-0.801-0.268-0.801-0.268l-0.091-0.802c0,0-0.851-0.798-1.656-0.798c-0.806,0-2.325-0.58-1.879-0.938
		c0.451-0.358-2.816-1.024-2.371-0.131c0.446,0.843-0.091,0.621-0.091,0.621s-0.086,0.802,0.451,0.848
		c0.491,0.091,0.714,0.712,1.388,0.667c0.623-0.086,1.206-0.576,1.565,0.227c0.355,0.802,0.714,0.489,1.206,0.489
		c0.492,0,0.806,0.848,0.806,0.848l0.446,0.086l-1.028,0.136c0,0-0.624,0.576-0.086,0.667
		C-43.702-17.114-45.131-17.114-45.131-17.114L-45.131-17.114z"/>
	<path fill="#FFFFFF" d="M-43.029-30.126c-0.583,0.136,1.074-0.58,1.52,0s0.851-0.934-1.028-0.711
		c-0.446-0.268-1.433-0.802-1.297,0.09C-43.702-29.904-43.029-30.126-43.029-30.126L-43.029-30.126z"/>
	<path fill="#FFFFFF" d="M-40.39-29.415c0.223,0.581-0.405-0.843,1.028,0c1.879,1.161,1.656-0.576,1.925,0.494
		c0.268,1.065,0.491-0.227,0.846,0.49c0.359,0.711-1.52,0.489-1.788,0.267c-0.269-0.222-0.851,0.132-1.206-0.449
		C-39.944-29.102-40.39-29.415-40.39-29.415L-40.39-29.415z"/>
	<path fill="#FFFFFF" d="M-3.937,7.439c-0.714,0.354-0.091,2.674-0.359,2.806c-0.268,0.136-0.355,0.934-0.446,1.65
		c-0.091,0.712-0.269,0.712-1.165,0.58c-0.847-0.136-0.086-1.428-0.714-1.382c-0.628,0.086-0.806-0.938-1.429-1.383
		c-0.628-0.444-0.228-1.07,0.086-1.423c0.269-0.358-0.583-1.07-0.355-1.786c0.269-0.667-0.359-1.024-0.496-1.378
		c-0.132-0.358-0.714-0.716-0.801-2.81c-1.165-0.934-0.45-3.164-0.45-3.164s-0.938-2.452-0.359-2.941
		c0.582-0.49-1.383-0.444-1.028-2.941c-0.624-0.49-1.074-1.514-0.578-1.56c0.492-0.086-0.582-0.267,0.269-0.802
		c0.846-0.489,0-1.378,0-1.378s-0.359-1.069-0.091-1.16s-0.223-1.514-0.492-1.559c-0.268-0.091,0.086-1.201,0.583-0.222
		c0.492,1.024,0.492,0.621,0.938,0.802c0.446,0.131,0.714,0.268,0.714,0.268c0.136,0.58,0.182,0.045,0.537,0.045
		C-6.216-6.507-4.205,0.128-3.845,7.217"/>
	<path fill="#FFFFFF" d="M-13.286-4.237c-0.132,0.222,0.45-0.403,0.496,0.268c0.086,0.667-0.182,0.625-0.273,0.268
		C-13.195-4.015-14-4.06-13.286-4.237L-13.286-4.237z"/>
	<path fill="#FFFFFF" d="M-10.916-2.011c-0.086,0.272,0.451-0.621,0.182,0.716c-0.091,0.444-0.359,0.58-0.359,0.58
		s-0.314,0.802-0.314,0s-0.086-0.983,0.223-1.024C-10.87-1.83-10.916-2.011-10.916-2.011L-10.916-2.011z"/>
	<path fill="#FFFFFF" d="M-10.647,8.817c-0.132,0.136,0.537-0.131,0.405,0.625c-0.136,0.757-0.045,0.49,0.091,0.802
		c0.086,0.267-0.273,1.337-0.496,0.444c0.182-0.308,0-0.843,0-0.843s-0.623-0.403-0.355-0.67
		C-10.825,8.908-10.647,8.817-10.647,8.817L-10.647,8.817z"/>
	<path fill="#FFFFFF" d="M-67.589-14.974c-0.086,0.267,0.451-0.625,0.182,0.711c-0.091,0.444-0.359,0.58-0.359,0.58
		s-0.314,0.802-0.314,0s-0.086-0.983,0.228-1.024C-67.544-14.797-67.589-14.974-67.589-14.974L-67.589-14.974z"/>
	<path fill="#FFFFFF" d="M-54.436,31.502c0.132,0.127,0.177,0.444,0.4,0.444c0.223,0.046,0.491-0.263,0.269-0.407
		c-0.178-0.127-0.314-0.218-0.314-0.436c0-0.272-0.492-0.272-0.446-0.091C-54.39,31.194-54.795,31.502-54.436,31.502L-54.436,31.502
		z"/>
	<path fill="#FFFFFF" d="M-48.22,14.256c0.582-0.444,2.461-0.222,2.953-0.222s0.942,0.086,1.388,0.354
		c0.446,0.271,0.938,1.378,1.52,0.671c0.583-0.717,0.806,0.127,0.673,0.489c0.624,0.091,0.938,0.444-0.091,0.58
		c-1.028,0.127-1.297,1.16-1.52,0.489c-0.223-0.625,0.223-1.287-0.583-1.287s-1.565-0.362-1.565-0.362s-0.714-0.489-0.942-0.489
		c-0.223,0-0.938,0-0.846,0.489c0.086,0.489,0,0.362-0.851,0.271C-49.026,15.186-49.112,14.256-48.22,14.256L-48.22,14.256z"/>
	<path fill="#FFFFFF" d="M-39.676,16.173c0.628-0.09-2.73-0.354,0.359,0.571c0.714,0.236-0.091,0.453,0.223,0.671
		c-0.714,0.091-1.297,0.136-1.297,0.136s-0.45,0.626,1.565,0.49c0.354-0.49,0.623-0.844,1.16-0.844c0.496,0,2.016-0.489,0.45-0.797
		C-37.842,15.675-39.23,15.548-39.676,16.173L-39.676,16.173z"/>
	<path fill="#FFFFFF" d="M-44.148,11.895c-0.091,0.399-0.091,0.712,0.046,0.934c0.132,0.223,0.313,0.182,0.354,0.403
		c0.046,0.223,0.719-0.045,0.314-0.313c-0.4-0.268,0.045-0.848-0.314-0.803C-44.103,12.162-43.748,11.359-44.148,11.895
		L-44.148,11.895z"/>
	<path fill="#FFFFFF" d="M-44.594,10.916c-0.136,0.222-0.091,0.489,0.355,0.398c0.45-0.091,0.45-0.177,0.673-0.045
		c0.269,0.136,0.355-0.091,0-0.268C-43.925,10.779-44.73,10.688-44.594,10.916L-44.594,10.916z"/>
	<path fill="#FFFFFF" d="M-43.925,17.288c-0.269,0.182,0.177,0.616,0.446,0.399c0.269-0.218,0.091,0.09,0.269,0.271
		c0.228,0.173,0.628-0.227,0.45-0.453c-0.223-0.263-0.182-0.707-0.268-0.444C-43.029,17.288-43.925,17.288-43.925,17.288
		L-43.925,17.288z"/>
	<path fill="#FFFFFF" d="M-35.831,16.572c0.091,0.354,0.851,0.136,0.628,0.489c-0.178,0.354-0.132,0.843,0.177,0.444
		c0.314-0.398-0.041-0.616,0.269-0.616c0.269,0,0.583-0.182-0.269-0.408C-35.917,16.255-35.831,16.572-35.831,16.572L-35.831,16.572
		z"/>
	<path fill="#FFFFFF" d="M-32.787,17.379c-0.223,0.218-0.178,0.436,0.045,0.398c0.223-0.045,0.314-0.271,0.223-0.271
		C-32.655,17.506-32.519,17.107-32.787,17.379L-32.787,17.379z"/>
	<path fill="#FFFFFF" d="M-31.668,17.995c0.086,0.182,0.132,0.453,0.314,0.544c0.223,0.036,0.491-0.181,0.355-0.362
		c-0.178-0.182-0.269-0.272-0.223-0.489c0.045-0.218-0.446-0.309-0.4-0.182C-31.582,17.688-32.027,17.959-31.668,17.995
		L-31.668,17.995z"/>
	<path fill="#FFFFFF" d="M-30.863,19.337c-0.045,0.127-0.091,0.218,0.046,0.309c0.086,0.091,0.223,0.045,0.223,0.136
		c0.045,0.091,0.492,0,0.223-0.091c-0.269-0.081,0.045-0.263-0.223-0.263S-30.64,19.155-30.863,19.337L-30.863,19.337z"/>
	<path fill="#FFFFFF" d="M-30.73,20.406c-0.314-0.09-0.446,0.037-0.314,0.218c0.136,0.182,0.405,0.136,0.314,0.046
		C-30.776,20.588-30.371,20.497-30.73,20.406L-30.73,20.406z"/>
	<path fill="#FFFFFF" d="M-40.659,15.059c0.086,0.091,0.178,0.127,0.269,0.091c0.086-0.091,0.132-0.182,0.178-0.182
		c0.091,0,0.136-0.444-0.046-0.218c-0.177,0.218-0.223-0.091-0.314,0.127C-40.572,15.059-40.75,14.786-40.659,15.059L-40.659,15.059
		z"/>
	<path fill="#FFFFFF" d="M-65.173,44.602c-0.041,0.263,0.223-0.535,0.583,0.081c0.314,0.58,0.091,0.635-0.132,0.363
		C-64.95,44.773-65.751,45.046-65.173,44.602L-65.173,44.602z"/>
	<path fill="#FFFFFF" d="M-87.09,0.441c-0.354,0.58-0.091,1.206,0.091,1.559c0.132,0.358-0.223,0.938-0.091,1.161
		c0.137,0.222,0.583-0.444,0.583-1.024c0.269-0.222,0.223-0.712,0-0.848C-86.685,1.152-86.417,0.087-87.09,0.441L-87.09,0.441z"/>
	<path fill="#FFFFFF" d="M-87.09-0.851c-0.354-0.177-0.223,0.802,0.091,0.848C-86.685,0.087-86.644-0.629-87.09-0.851L-87.09-0.851z
		"/>
	<path fill="#FFFFFF" d="M-68.304-26.292c-0.223,0.222-0.177,0.444,0.045,0.399c0.223-0.045,0.314-0.268,0.223-0.268
		C-68.167-26.161-68.035-26.56-68.304-26.292L-68.304-26.292z"/>
	<path fill="#FFFFFF" d="M-67.544-24.955c0,0.086,0.091,0.086,0.182,0.177c0.041,0.045,0.041-0.177,0.041-0.177
		s-0.041,0.041-0.041-0.136c-0.045-0.177-0.091-0.131-0.137-0.045C-67.544-25.091-67.453-25-67.544-24.955L-67.544-24.955z"/>
	<path fill="#FFFFFF" d="M-68.84-23.663c-0.178,0.041-0.132,0.131,0,0.131c0.091,0-0.086,0.136-0.178,0.091
		c-0.091-0.045-0.136-0.181-0.045-0.136C-69.018-23.622-69.063-23.799-68.84-23.663L-68.84-23.663z"/>
	<path fill="#FFFFFF" d="M-55.732-22.018c0.938,0.136-2.33-0.843,0.086-1.201c0.496-0.848,1.21-0.49,1.297,0
		c0.091,0.489-0.132,0.711-0.355,0.711c-0.223,0,0.355,0.49,0.938,0.49c0.582,0,1.21-0.268,1.296,0.227
		c0.091,0.489,0.806,1.913,0,1.913c-0.805,0-0.446-0.58-1.028-0.268c-0.582,0.268-1.52,0.671-1.651,0.222
		c-0.137-0.444-1.301-1.07-0.228-1.024c1.074,0.091,1.074-0.222,0.269-0.444C-55.869-21.569-55.732-22.018-55.732-22.018
		L-55.732-22.018z"/>
	<path fill="#FFFFFF" d="M-47.101-26.473c0.851-0.222,1.433-0.444,1.388,0.136c-0.091,0.58,0.623,0.444-0.359,0.802
		c-1.028,0.354-1.743,0.086-1.565,0.58c0.137,0.49,0.359,0.843,0,1.024c-0.359,0.132-0.668,0.132-1.028,0.086
		c-0.359-0.086-0.446-0.843-0.937-0.843c-0.496,0-0.583-0.938,0.491-0.848c1.074,0.086,1.028-0.625,1.028-0.625L-47.101-26.473
		L-47.101-26.473z"/>
	<path fill="#FFFFFF" d="M-50.769-24.869c0.492,0,0.583,1.382,1.028,1.16s0.806,0.131,1.165,0.49c0.355,0.358,1.16,0.131,1.16,0.444
		c0,0.268-1.383,0.222-1.656,0.136c-0.264-0.091-0.801-0.091-1.16-0.136c-0.359-0.086-0.359-0.934-0.491-1.024
		C-50.905-23.885-51.71-24.869-50.769-24.869L-50.769-24.869z"/>
	<path fill="#FFFFFF" d="M-53.944-24.289c-0.136,0.58,0.359,0.358,0.628,0.58s-0.496,0.58,0.223,0.712
		c0.714,0.136,1.383,0.489,1.565,0.222c0.223-0.267,0.446-0.711-0.091-0.711c-0.491,0-0.938-0.489-1.028-0.934
		C-52.647-24.869-53.767-24.869-53.944-24.289L-53.944-24.289z"/>
	<path fill="#FFFFFF" d="M-47.01-23.219c0.223,0.358,0.355,0.848,0.669,0.848c0.269,0,0.446-0.49,0.223-0.802
		C-46.341-23.441-46.924-23.799-47.01-23.219L-47.01-23.219z"/>
	<path fill="#FFFFFF" d="M-50.905-25.716c-0.223,0.227-0.178,0.449,0.045,0.403s0.314-0.268,0.223-0.268
		C-50.769-25.581-50.636-25.938-50.905-25.716L-50.905-25.716z"/>
	<path fill="#FFFFFF" d="M-49.917-21.836c-0.045,0.177,0.177,0.222,0.314,0.313c0.132,0.086,0.177-0.313,0.177-0.313
		s-0.045,0.086-0.136-0.268c-0.041-0.403-0.178-0.313-0.269-0.09C-49.831-22.059-49.695-21.927-49.917-21.836L-49.917-21.836z"/>
	<path fill="#FFFFFF" d="M-53.853-23.355c-0.182,0.091-0.091,0.182,0,0.182c0.086,0-0.091,0.177-0.182,0.131
		c-0.086-0.086-0.086-0.268-0.045-0.268C-53.99-23.264-54.035-23.622-53.853-23.355L-53.853-23.355z"/>
	<path fill="#FFFFFF" d="M-46.742-14.394c0,0.308,0.177,0.444,0.314,0.263c0.132-0.177,0.041-0.399-0.045-0.308
		C-46.519-14.394-46.742-14.752-46.742-14.394L-46.742-14.394z"/>
	<path fill="#FFFFFF" d="M-46.027-11.457c-0.269,0.136-0.314,0.313-0.132,0.403c0.223,0.045,0.4-0.136,0.309-0.136
		C-45.937-11.276-45.713-11.588-46.027-11.457L-46.027-11.457z"/>
	<path fill="#FFFFFF" d="M-71.479-26.604c6.934-4.723,15.297-7.488,24.333-7.488c13.822,0,26.125,6.463,34.083,16.535
		c0.228,0.535,0.182,0.757-0.355,0.399c0,0-0.491-0.091-0.805-0.091c-0.269,0-0.223-0.268-0.491-0.58
		c-0.269-0.263-0.451-0.086-0.851-0.086c-0.446,0,0.446,0.802,0.446,0.802s0.806,0.354,1.21,0.268
		c0.446-0.091,0.624,0.848,0.624,0.848s0.491-0.091,0.627,0.354c0.132,0.449-0.446,1.428-0.446,1.16
		c0-0.267,0.086-0.444-0.136-0.489c-0.223-0.091-0.714-0.091-0.806-0.49c-0.086-0.449-0.446-0.494-0.851-0.802
		c-0.446-0.267-0.714,0.086-0.355,0.802c0.269,0.354,0.938,0.49,1.16,0.798c0.228,0.272,0.359,0.807-0.269,0.807
		c0,0.444,0.269,0.798,0.583,0.934c0.269,0.131,0.851,0.711,1.028,1.069c0.137,0.354,0.851,1.382,0.451,1.559
		c-0.451,0.222-0.851,0.581-0.851,1.024c0,0.444-0.851,0.136-1.028-0.58c-0.136-0.711-0.942-0.222-0.851-1.156
		c0.091-0.938-1.074-1.206-1.074-1.206s-0.628-0.934-0.091-1.292c0.583-0.354,0.583-1.024,0.269-1.201
		c-0.269-0.222-0.624-1.559-1.16-1.024c-0.491,0.575-0.223-1.161-0.719-0.227c-0.492,0.938-0.847-0.711-0.806-1.069
		c0.091-0.444-0.268-1.378-0.491-1.559c-0.223-0.222-0.491-0.621-0.491-0.934c0-0.267-0.806-0.444-0.806-0.444l-0.269-0.671
		c0,0-1.428-0.621-0.354-0.712c1.069-0.09-1.301-0.847-1.301-0.847c0.136-0.848,0.228-1.383-0.132-1.65
		c-0.359-0.268-1.074-0.843-1.433-1.024c-0.355-0.131-0.805-0.354-0.937-0.848c-0.137-0.49-0.942-0.843-1.206-0.843
		c-0.273,0-1.165-1.16-1.033-0.489c0.137,0.666,0.359,1.423,0.942,1.423s1.565,0.847,1.656,1.206
		c0.086,0.354,1.206,0.621,1.206,0.621s0.583,0.847-0.223,0.625c-0.806-0.222-1.21-0.848-1.656-0.581
		c-0.446,0.268-1.028,0.802-0.938,0.091l-0.228-0.222c-0.355-0.449-1.16-1.74-1.743-1.563c-0.582,0.136-1.206-0.49-1.656-0.934
		c-0.446-0.444-1.074-0.222-1.297-0.489c-0.178-0.222-0.938-1.024-1.429-1.024c-0.719,0-1.165-0.449-1.028-1.206
		c0.132-0.802,0.801-0.222,0.801-0.222s0.137,0,0.537,0.403c0.091,0.086,0.228,0.308,0.314,0.308c1.747,0,0.582-1.156-0.269-0.802
		c0.136-0.621-1.743-0.576-2.234-0.711c-0.492-0.131-0.492-1.156-0.674-0.711c-0.132,0.444-1.296,0.354-1.388-0.268
		c-0.086-0.625-1.296,0-2.68,0.086c-1.388,0.091-1.028-0.489-1.433-0.444c-0.446,0.09-1.165,0.09-1.656,0.136
		c-0.491,0.086-0.223-0.625-0.223-1.07c0-0.449-0.582,0.222-2.593,0.222s-0.446-0.444-1.788-0.444c-1.388,0-0.137,0.711-0.137,0.711
		s0.583-0.222,0.583,0.131c0,0.358-0.805,0.227-1.206,0.449c-0.451,0.222-1.165-0.136-1.074-0.802
		c0.086-0.625-1.524,0.444-1.388-0.222c0.132-0.625-1.388-0.136-1.434,0.086c0,0-1.296,0.222-2.011,0.222
		c-0.537,0-1.879,0.625-1.879,0.625s0.714-0.131,1.297,0.136c0.583,0.263-0.4,0.444-1.297,0.843c-1.52,0.716-0.851-0.086-0.714-0.58
		c0.132-0.489-1.879,0.671-1.879,0.671s-0.719,0.934-1.297,0.444c-0.582-0.49-0.268,0.58-1.433,0.802
		c-1.165,0.222-0.583,0.489-1.388,0.716c-0.805,0.222-0.446,0.222,0,1.024c1.165,0.268-0.086,0.49-0.623,0.222
		c-0.583-0.267-1.21,0.58-1.388,0.848c-0.136,0.268-0.268,0.843-0.805,0.843c-0.491,0-0.223-0.444-0.223-0.444l-0.628,0.222
		c0,0,0.223-0.268,0.136-0.621c-0.091-0.358-0.673,0.268-0.942,0.49c-0.268,0.222-0.805,0.267-0.805,0.267l-0.132-0.802
		c0,0-0.223,0.086-0.269-0.938c-0.091-1.024-0.714,1.024-1.433,0.671c-0.714-0.358-1.206,1.069-1.52,1.382
		c-0.269,0.267-1.074,0.535-0.714,0c0.223-0.358,0.537-0.313,0.537-0.494c0-0.177-0.091-0.354-0.091-0.354
		c-0.405-0.091-0.76-0.091-0.492-0.268C-71.166-26.473-71.479-26.604-71.479-26.604L-71.479-26.604z"/>
	<path fill="#FFFFFF" d="M-23.974-21.08c0.583,0.131,0.624,0.49,1.16,0.802c0.492,0.268,0.806,0.222,1.21,0.268
		c0.446,0.086,1.206,0.222,1.388,0.711c0.132,0.49,1.028,1.292,0.669,1.514c-0.492-0.222-0.851,0.136-0.669,0.358
		c0.223,0.222,0.223,0.934-0.228,0.489c-0.446-0.444-0.269-0.934-0.491-1.201c-0.223-0.268-0.355-0.803-0.806-0.803
		c-0.446,0-1.651-0.67-1.651-0.938S-25.184-20.948-23.974-21.08L-23.974-21.08z"/>
	<path fill="#FFFFFF" d="M-23.037-18.94c0.359,0.222,1.21,0,1.21,0.49s0.714,1.292,0.086,1.736c-0.354,0.222-0.446-0.086-0.354-0.58
		c-0.451-0.222-1.388-0.576-1.074-0.798C-22.855-18.274-23.751-19.298-23.037-18.94L-23.037-18.94z"/>
	<path fill="#FFFFFF" d="M-30.508-22.729c0.492,0,0.451,0.444,0.806,0.444c0.359,0,0.496,0.227,0.496,0.716
		c0,0.489,0,1.423-0.496,1.292c-0.492-0.136-0.269-0.358-0.938-0.489c-0.673-0.136-2.239-0.716-1.074-1.024
		C-30.594-22.059-30.508-22.149-30.508-22.729L-30.508-22.729z"/>
	<path fill="#FFFFFF" d="M-12.167-3.167c0.091,0.045,0.314,0,0.314,0.131c0,0.136,0.177,0.313,0,0.403
		c-0.091,0.045-0.091,0-0.091-0.136c-0.086-0.041-0.314-0.131-0.268-0.177C-12.122-2.99-12.345-3.258-12.167-3.167L-12.167-3.167z"
		/>
	<path fill="#FFFFFF" d="M-30.016,21.694c0.182,0.09,0.359,0.308,0.582,0.227c0.228-0.091,0.314-0.444,0.091-0.49
		c-0.223-0.045-0.359-0.045-0.446-0.263c-0.091-0.227-0.583,0-0.451,0.082C-30.148,21.386-30.326,21.83-30.016,21.694
		L-30.016,21.694z"/>
	<path fill="#FFFFFF" d="M-28.852,22.809c0,0.317,0.177,0.444,0.314,0.264c0.132-0.173,0.045-0.399-0.045-0.309
		C-28.674,22.809-28.897,22.455-28.852,22.809L-28.852,22.809z"/>
	<path fill="#FFFFFF" d="M-32.027-9.096c0.091,0.045,0.177,0.136,0.269,0.091c0.091-0.045,0.136-0.222,0.045-0.222
		s-0.177,0-0.223-0.136c-0.045-0.086-0.268,0-0.182,0.045C-32.073-9.227-32.159-9.005-32.027-9.096L-32.027-9.096z"/>
	<path fill="#FFFFFF" d="M-72.954-21.392c0.086,0.045,0.314,0,0.314,0.136c0,0.131,0.177,0.308,0,0.399
		c-0.091,0.045-0.091,0-0.091-0.136c-0.091-0.041-0.314-0.131-0.269-0.177C-72.954-21.256-73.136-21.483-72.954-21.392
		L-72.954-21.392z"/>
	<path fill="#FFFFFF" d="M-13.327-6.598c-0.091,0.222,0.355-0.489,0.132,0.58c-0.091,0.354-0.269,0.444-0.269,0.444
		s-0.269,0.625-0.269,0s-0.091-0.757,0.178-0.848C-13.286-6.467-13.327-6.598-13.327-6.598L-13.327-6.598z"/>
	<path fill="#FFFFFF" d="M-52.379-25.222c-0.178,0.086-0.091,0.177,0,0.177c0.091,0-0.091,0.177-0.178,0.131
		c-0.091-0.086-0.091-0.268-0.045-0.268C-52.557-25.136-52.602-25.49-52.379-25.222L-52.379-25.222z"/>
	<path fill="#FFFFFF" d="M-56.583-21.973c-0.223,0.222-0.178,0.449,0.045,0.404c0.223-0.045,0.314-0.268,0.223-0.268
		C-56.451-21.836-56.36-22.24-56.583-21.973L-56.583-21.973z"/>
	<path fill="#FFFFFF" d="M-44.863-22.82c-0.228,0.227-0.182,0.449,0.041,0.403c0.228-0.045,0.314-0.268,0.228-0.268
		C-44.73-22.684-44.64-23.087-44.863-22.82L-44.863-22.82z"/>
	<path fill="#FFFFFF" d="M-56.897-24.823c-0.223,0.222-0.178,0.444,0.045,0.403c0.223-0.045,0.314-0.268,0.223-0.268
		C-56.761-24.646-56.674-25.045-56.897-24.823L-56.897-24.823z"/>
	<path fill="#FFFFFF" d="M-46.159-18.138c-0.228,0.222-0.182,0.444,0.041,0.398c0.223-0.045,0.314-0.267,0.223-0.267
		C-46.027-18.006-45.937-18.36-46.159-18.138L-46.159-18.138z"/>
	<path fill="#FFFFFF" d="M-57.479-24.066c0.091,0.045,0.182,0.136,0.269,0.091c0.091-0.045,0.136-0.222,0.045-0.222
		s-0.177,0-0.223-0.136c-0.045-0.086-0.268,0-0.177,0.045C-57.566-24.198-57.657-23.976-57.479-24.066L-57.479-24.066z"/>
	<path fill="#FFFFFF" d="M-30.73-8.515c-0.223,0.222-0.178,0.448,0.045,0.403c0.223-0.045,0.314-0.268,0.223-0.268
		C-30.594-8.379-30.462-8.783-30.73-8.515L-30.73-8.515z"/>
	<path fill="#FFFFFF" d="M-68.035-16.892c-0.355-0.177-0.223,0.802,0.091,0.848C-67.676-15.999-67.63-16.715-68.035-16.892
		L-68.035-16.892z"/>
	<path fill="#FFFFFF" d="M-69.509-12.658c-0.223,0.222-0.182,0.444,0.045,0.399c0.223-0.041,0.31-0.268,0.223-0.268
		C-69.377-12.481-69.287-12.88-69.509-12.658L-69.509-12.658z"/>
	<path fill="#FFFFFF" d="M-8.946,11.45c0.091,0.041,0.178,0.132,0.269,0.086c0.091-0.045,0.132-0.222,0.045-0.222
		c-0.091,0-0.182,0-0.223-0.136c-0.045-0.086-0.268,0-0.182,0.045C-9.037,11.314-9.123,11.491-8.946,11.45L-8.946,11.45z"/>
	<path fill="#FFFFFF" d="M-11.271,7.303c0.086,0.045,0.313,0,0.313,0.136c0,0.132,0.178,0.313,0,0.399
		c-0.091,0.045-0.091,0-0.091-0.131c-0.091-0.045-0.314-0.136-0.269-0.181C-11.225,7.439-11.453,7.217-11.271,7.303L-11.271,7.303z"
		/>
	<path fill="#FFFFFF" d="M-10.557,6.147c0.091,0.041,0.178,0.131,0.269,0.086c0.091-0.045,0.137-0.222,0.045-0.222
		c-0.091,0-0.182,0-0.223-0.131c-0.045-0.091-0.269,0-0.182,0.041C-10.602,5.966-10.688,6.188-10.557,6.147L-10.557,6.147z"/>
	<path fill="#FFFFFF" d="M-41.418,42.779c0.086,0.172,0.132,0.436,0.31,0.525c0.228,0.046,0.496-0.181,0.359-0.354
		c-0.177-0.172-0.269-0.263-0.223-0.489c0.046-0.227-0.446-0.317-0.405-0.172C-41.377,42.462-41.778,42.725-41.418,42.779
		L-41.418,42.779z"/>
	<path fill="#FFFFFF" d="M-39.99,44.339c-0.223,0.217-0.177,0.435,0.045,0.398c0.223-0.055,0.314-0.271,0.223-0.271
		C-39.853,44.511-39.721,44.111-39.99,44.339L-39.99,44.339z"/>
	<path fill="#FFFFFF" d="M-42.983,42.018c0.086,0.091,0.177,0.127,0.309,0.091c0.091-0.091,0.137-0.182,0.182-0.182
		c0.086,0,0.132-0.443-0.045-0.217c-0.182,0.217-0.223-0.091-0.314,0.127C-42.897,42.018-43.075,41.71-42.983,42.018L-42.983,42.018
		z"/>
	<path fill="#FFFFFF" d="M-40.076,42.235c-0.359-0.182-0.228,0.807,0.086,0.853C-39.721,43.178-39.676,42.462-40.076,42.235
		L-40.076,42.235z"/>
	<path fill="#FFFFFF" d="M-53.048,30.831c0.086,0.091,0.177,0.137,0.264,0.091c0.091-0.091,0.137-0.181,0.182-0.181
		c0.091,0,0.132-0.444-0.045-0.218c-0.177,0.218-0.223-0.091-0.314,0.127C-52.961,30.831-53.139,30.523-53.048,30.831
		L-53.048,30.831z"/>
	<path fill="#FFFFFF" d="M-54.927,29.671c0.086,0.091,0.177,0.137,0.309,0.091c0.091-0.091,0.137-0.182,0.182-0.182
		c0.086,0,0.132-0.443-0.045-0.217c-0.178,0.217-0.223-0.091-0.314,0.127C-54.84,29.671-55.018,29.363-54.927,29.671L-54.927,29.671
		z"/>
	<path fill="#FFFFFF" d="M-47.01,30.124c-0.045,0.127-0.091,0.218,0.045,0.309c0.086,0.091,0.223,0.036,0.223,0.127
		c0.045,0.091,0.491,0,0.223-0.091c-0.269-0.081,0.045-0.263-0.223-0.263C-46.965,30.161-46.742,29.943-47.01,30.124L-47.01,30.124z
		"/>
	<path fill="#FFFFFF" d="M-45.623,29.544c-0.228,0.218-0.182,0.436,0.041,0.399c0.223-0.046,0.314-0.272,0.223-0.272
		C-45.445,29.717-45.358,29.317-45.623,29.544L-45.623,29.544z"/>
	<path fill="#FFFFFF" d="M-47.279,28.964c0.086,0.091,0.178,0.127,0.314,0.091c0.086-0.091,0.132-0.182,0.178-0.182
		c0.091,0,0.132-0.453-0.045-0.227c-0.178,0.227-0.223-0.081-0.314,0.137C-47.233,28.964-47.37,28.646-47.279,28.964L-47.279,28.964
		z"/>
	<path fill="#CBD0E0" d="M-46.655-1.563c-0.714,0.358-0.491,1.781,0.091,1.07c0.583-0.712,0.492-0.848,1.165-1.161
		c0.623-0.267,0.846-0.58,1.297-0.58c0.446,0,1.028-0.354-0.269-0.354c-0.223-0.489-0.719,0.268-0.719,0.268
		s-0.268,0.354-0.623,0.354C-46.159-1.92-46.655-1.563-46.655-1.563L-46.655-1.563z"/>
	<path fill="#CBD0E0" d="M-46.519-2.854c0.714,0.131,1.52-0.625,0.714-0.625c-0.806,0-0.132-0.444-0.583-0.581
		c-0.446-0.131-0.806-0.131-1.52-0.222c-0.714-0.086-0.36-1.292-0.628-1.201c-0.264,0.086-1.161-0.358-1.565-0.625
		c-0.446-0.268-1.028,0.444-1.16,0.934c-0.137,0.494-1.297-0.131-0.714,0.807c0.264,0.399,1.028,0.086,1.429-0.227
		c0.446-0.268,0.491-0.268,1.074,0.091c0.583,0.358,0.851,0.711,0.269,0.625c-0.583-0.091-0.132,0.802-0.583,0.843
		c-0.446,0.091-0.269,0.358-0.355,1.559c-0.091,1.206,0.578,0.848,0.624,0.091c0.091-0.802,0.359-1.024,0.359-1.024
		s0.491,0,0.446-1.024c-0.086-1.024,1.028,0.222,1.028,0.222s-0.132,0.938,0.223,1.07c0.359,0.131-0.086,0.666,0.136,0.666
		c0.223,0,0.583-0.354,0.583-0.797C-46.742-2.723-46.519-2.854-46.519-2.854L-46.519-2.854z"/>
	<path fill="#CBD0E0" d="M-54.704-10.075c-0.405,0.671,0.492,0.712,0.446,1.161c-0.091,0.444-0.132,1.069,0.137,1.201
		c0.269,0.136,0.805,1.514,0.805,0.802c0-0.712-0.359-0.802-0.45-1.292c-0.086-0.49,0.091-1.292,0.136-1.514
		C-53.585-9.938-54.304-10.832-54.704-10.075L-54.704-10.075z"/>
	<path fill="#CBD0E0" d="M-56.092-9.585c0.132,0.489,0.805,0.802,0.583,1.16c-0.223,0.358,0.714,0.621,0.623,0.086
		c-0.086-0.576-0.491-1.514-0.491-1.514S-55.778-10.165-56.092-9.585L-56.092-9.585z"/>
	<path fill="#CBD0E0" d="M-57.834-13.818c0.578-0.444,1.743-0.49,2.102-0.354c-0.359-0.494-1.028-0.449-1.565-0.449
		C-57.834-14.888-58.908-14.752-57.834-13.818L-57.834-13.818z"/>
	<path fill="#CBD0E0" d="M-59.491-15.776c0.714,0.267,1.429,0.131,1.879-0.222c0.446-0.358,0.805-0.227,1.206-0.227
		c0.446,0,0.359-0.667-1.074-0.354c-0.669-0.091-0.714-0.625-0.714-0.625s-0.583-0.131-0.583,0.444c0,0.581-0.668,0.358-0.937,0.358
		S-59.491-15.776-59.491-15.776L-59.491-15.776z"/>
	<path fill="#CBD0E0" d="M-59.399-20.01c-0.405-0.403-1.57,0.354,0.578,0.489c2.147,0.132-0.805,0.58-0.805,0.58
		s0.091,0.712,0.805,0.49c0.719-0.222,1.656-0.58,1.388-0.848s-0.582-0.848-0.851-0.802C-58.599-20.01-59.313-19.878-59.399-20.01
		L-59.399-20.01z"/>
</g>
<g id="Cresent">
	<path fill="#002E6D" d="M-97.646,9.311c0-27.363,22.276-49.55,49.785-49.55c1.165,0,2.37,0.041,3.535,0.132
		C-47.37-40.688-50.5-41-53.676-41c-27.823,0-50.322,22.414-50.322,50.084c0,27.675,22.499,50.084,50.276,50.084
		c1.833,0,3.622-0.091,5.369-0.263C-75.593,58.644-97.646,36.533-97.646,9.311z"/>
</g>
<g id="Bretting">
	<g>
		<path fill="#002E6D" d="M8.767-5.705v1.645h2.593v36.759c0,2.593,1.074,4.822,3.222,6.645c2.147,1.822,4.877,2.71,8.144,2.71
			h2.503v-1.641h-2.503c-2.375,0-3.585-1.251-3.585-3.698v-40.82h5.733V-5.75h-5.733V-22.24l-7.826,3.164v13.412H8.767V-5.705z"/>
		<path fill="#002E6D" d="M27.021-5.705v1.645h2.584v36.759c0,2.593,1.074,4.822,3.222,6.645s4.877,2.71,8.144,2.71h2.503v-1.641
			h-2.503c-2.375,0-3.576-1.251-3.576-3.698v-40.82h5.77V-5.75H37.44V-22.24l-7.835,3.164v13.412h-2.584V-5.705z"/>
		<rect x="48.396" y="-22.24" fill="#002E6D" width="7.835" height="11.05"/>
		<polygon fill="#002E6D" points="45.939,-5.705 45.939,-4.105 48.396,-4.105 48.396,40.413 45.939,40.413 45.939,42.018 
			58.688,42.018 58.688,40.413 56.231,40.413 56.231,-5.705 		"/>
		<path fill="#002E6D" d="M60.745-5.705v1.645h2.594v44.473h-2.594v1.641h12.83v-1.641h-2.456V-2.768
			c1.119-1.024,2.329-1.559,3.621-1.559c1.966,0,2.958,1.16,2.958,3.476v42.869h10.291v-1.649h-2.466V2.268
			c0-5.611-2.866-8.421-8.545-8.421c-2.411,0-4.386,0.58-5.859,1.74v-1.292H60.745z"/>
		<path fill="#002E6D" d="M-44.999-5.705v1.645h2.593v44.473h-2.593v1.641h12.972v-1.641h-2.593V-2.768
			c1.028-1.024,2.056-1.559,3.13-1.559c1.565,0,2.37,1.16,2.37,3.476v9.668h7.831V2.222c0-5.611-2.598-8.421-7.831-8.421
			c-2.234,0-4.072,0.58-5.5,1.74V-5.75h-10.378V-5.705z"/>
		<g>
			<path fill="#002E6D" d="M-57.12-6.199c-2.416,0-4.381,0.58-5.86,1.74v-17.826h-10.424v1.65h2.598v61.048h-2.598v1.641h10.424
				v-1.287c1.479,1.16,3.399,1.74,5.86,1.74c5.678,0,8.545-2.81,8.545-8.421V2.268C-48.575-3.389-51.442-6.199-57.12-6.199z
				 M-56.451,37.159c0,2.32-0.983,3.48-2.907,3.48c-1.297,0-2.502-0.489-3.622-1.522V-2.809c1.165-1.029,2.371-1.559,3.622-1.559
				c1.924,0,2.907,1.156,2.907,3.517"/>
		</g>
		<g>
			<path fill="#002E6D" d="M5.455,18.975V3.206c0-2.629-1.069-4.859-3.217-6.685c-2.147-1.827-4.832-2.72-8.099-2.72
				c-3.262,0-5.992,0.893-8.14,2.72c-2.148,1.826-3.222,4.056-3.222,6.64v29.937c0,2.629,1.074,4.859,3.222,6.645
				c2.147,1.822,4.877,2.72,8.14,2.72c3.267,0,5.951-0.897,8.099-2.72s3.217-4.016,3.217-6.645v-5.656h-7.826v9.718
				c0,2.447-1.165,3.653-3.49,3.653c-2.371,0-3.531-1.206-3.531-3.653V18.938H5.455V18.975z M-9.392-0.851
				c0-2.452,1.16-3.698,3.531-3.698c2.325,0,3.49,1.247,3.49,3.698v18.175h-7.021V-0.851z"/>
		</g>
		<g>
			<path fill="#002E6D" d="M105.516-5.705v1.246c-1.474-1.16-3.403-1.74-5.86-1.74c-5.678,0-8.535,2.81-8.535,8.421v30.839
				c0,5.656,2.857,8.467,8.535,8.467c2.421,0,4.387-0.58,5.86-1.74v10.207c0,2.447-1.028,3.698-3.085,3.698
				c-2.283,0-3.448-1.251-3.448-3.698v-5.747h-7.826v1.649c0,2.574,1.129,4.769,3.358,6.636c2.238,1.831,4.877,2.756,7.916,2.756
				c3.222,0,5.86-0.889,7.872-2.711c2.02-1.831,3.039-4.016,3.039-6.645V-4.105h2.466V-5.75h-10.292V-5.705z M105.516,38.184
				c-1.164,1.024-2.365,1.559-3.621,1.559c-1.92,0-2.912-1.151-2.912-3.472V-0.806c0-2.316,0.992-3.477,2.912-3.477
				c1.292,0,2.511,0.535,3.621,1.56V38.184z"/>
		</g>
	</g>
	<g>
		<path fill="#002E6D" d="M-44.417,61c-0.405,0-0.76-0.091-1.12-0.271c-0.359-0.182-0.623-0.444-0.851-0.798
			c-0.223-0.363-0.31-0.717-0.31-1.161c0-0.398,0.086-0.761,0.31-1.114c0.182-0.354,0.491-0.626,0.851-0.807
			c0.359-0.173,0.714-0.309,1.12-0.309c0.4,0,0.76,0.091,1.119,0.309c0.355,0.181,0.623,0.489,0.851,0.807
			c0.178,0.354,0.31,0.716,0.31,1.114c0,0.399-0.086,0.798-0.31,1.161c-0.228,0.354-0.496,0.616-0.851,0.798
			C-43.657,60.909-44.016,61-44.417,61z M-44.417,60.691c0.359,0,0.668-0.09,0.937-0.227c0.314-0.181,0.537-0.407,0.719-0.671
			c0.178-0.316,0.269-0.625,0.269-0.979s-0.091-0.671-0.269-0.934c-0.182-0.309-0.405-0.544-0.719-0.717
			c-0.31-0.172-0.623-0.263-0.937-0.263c-0.36,0-0.674,0.091-0.942,0.263c-0.31,0.173-0.537,0.408-0.714,0.717
			c-0.178,0.308-0.269,0.616-0.269,0.934c0,0.354,0.091,0.662,0.269,0.979c0.177,0.317,0.405,0.535,0.714,0.671
			C-45.044,60.602-44.73,60.691-44.417,60.691z M-44.822,60.147h-0.446v-2.755h0.896c0.223,0,0.355,0.036,0.491,0.09
			c0.091,0.036,0.178,0.127,0.269,0.264c0.045,0.136,0.091,0.227,0.091,0.398c0,0.182-0.045,0.317-0.136,0.444
			c-0.091,0.136-0.223,0.271-0.4,0.317c0.086,0.045,0.177,0.172,0.309,0.398l0.451,0.843h-0.492l-0.359-0.707l-0.091-0.181
			c-0.086-0.182-0.177-0.272-0.223-0.272h-0.314v1.16H-44.822z M-44.822,58.644h0.314c0.182,0,0.314-0.055,0.405-0.182
			c0.086-0.091,0.132-0.227,0.132-0.362c0-0.091,0-0.127-0.045-0.218c-0.041-0.046-0.086-0.136-0.132-0.182
			c-0.045-0.045-0.177-0.045-0.314-0.045h-0.314v0.988H-44.822z"/>
	</g>
	<g>
		<path fill="#818EB4" d="M128.738,40.64h-7.116v-3.971h0.765v3.073h2.229v-2.674h0.719v2.674h2.594v-3.29h0.755v4.188H128.738z"/>
		<path fill="#818EB4" d="M127.392,35.6v-0.852l0,0c0.219,0,0.4-0.091,0.537-0.264c0.137-0.172,0.228-0.443,0.228-0.843
			c0-0.362-0.091-0.625-0.273-0.853c-0.182-0.217-0.363-0.308-0.582-0.308c-0.31,0-0.537,0.218-0.674,0.616l-0.127,0.453
			l-0.091,0.272l-0.183,0.571c-0.272,0.67-0.673,1.023-1.201,1.023c-0.409,0-0.764-0.181-1.073-0.489
			c-0.318-0.308-0.455-0.798-0.455-1.423c0-0.626,0.137-1.07,0.4-1.333c0.273-0.271,0.546-0.407,0.855-0.407l0,0v0.843l0,0
			c-0.182,0-0.31,0.091-0.4,0.271c-0.091,0.182-0.137,0.399-0.137,0.671c0,0.354,0.091,0.58,0.228,0.762
			c0.128,0.172,0.31,0.263,0.528,0.263c0.182,0,0.272-0.045,0.409-0.181c0.082-0.137,0.173-0.309,0.264-0.571l0.137-0.408
			l0.091-0.317c0.137-0.398,0.228-0.662,0.264-0.752c0.046-0.082,0.091-0.227,0.183-0.317c0.091-0.127,0.218-0.263,0.4-0.309
			c0.136-0.091,0.363-0.091,0.536-0.091c0.501,0,0.901,0.182,1.211,0.544c0.31,0.354,0.491,0.844,0.491,1.505
			c0,0.408-0.046,0.762-0.182,1.033c-0.128,0.264-0.31,0.49-0.492,0.671C127.975,35.555,127.701,35.6,127.392,35.6L127.392,35.6z"/>
		<path fill="#818EB4" d="M128.02,27.405h0.719c0.082,0.398,0.128,0.707,0.128,0.924c0,0.317-0.046,0.581-0.183,0.853
			c-0.127,0.271-0.309,0.453-0.527,0.58c-0.228,0.136-0.637,0.182-1.165,0.182h-2.639v0.888h-0.719v-0.888h-1.211v-0.853h1.211
			v-1.469h0.719v1.469h2.366c0.455,0,0.764-0.036,0.946-0.091c0.173-0.09,0.31-0.172,0.4-0.308c0.091-0.127,0.127-0.309,0.127-0.535
			C128.192,27.985,128.102,27.759,128.02,27.405z"/>
		<path fill="#818EB4" d="M128.738,25.039v1.205h-1.219v-1.205H128.738z"/>
		<path fill="#818EB4" d="M128.738,18.358h-6.224l0.582,1.423h-0.801l-0.674-1.423v-0.853h7.116V18.358z"/>
		<path fill="#818EB4" d="M125.69,9.755c0.354-0.222,0.719-0.358,1.119-0.358c0.364,0,0.71,0.091,1.073,0.313
			c0.364,0.177,0.628,0.489,0.801,0.802c0.183,0.358,0.273,0.758,0.273,1.292c0,0.535-0.091,0.979-0.273,1.292
			c-0.173,0.358-0.437,0.626-0.801,0.803c-0.363,0.181-0.709,0.313-1.073,0.313c-0.4,0-0.765-0.132-1.119-0.358
			c-0.355-0.222-0.628-0.575-0.847-1.024c-0.182,0.358-0.4,0.626-0.673,0.803c-0.273,0.181-0.583,0.268-0.893,0.268
			c-0.309,0-0.628-0.087-0.946-0.268c-0.31-0.177-0.491-0.444-0.664-0.803c-0.137-0.354-0.228-0.712-0.228-1.069
			c0-0.354,0.091-0.757,0.228-1.07c0.137-0.353,0.354-0.621,0.664-0.802c0.318-0.177,0.583-0.268,0.946-0.268
			c0.355,0,0.619,0.091,0.893,0.268c0.272,0.181,0.491,0.449,0.673,0.802C125.025,10.335,125.335,9.978,125.69,9.755z
			 M124.479,11.85c0-0.358-0.127-0.671-0.354-0.894c-0.228-0.222-0.491-0.354-0.847-0.354c-0.363,0-0.628,0.132-0.855,0.399
			c-0.218,0.268-0.309,0.534-0.309,0.893c0,0.313,0.091,0.621,0.309,0.889c0.228,0.268,0.492,0.403,0.855,0.403
			c0.31,0,0.583-0.136,0.847-0.358C124.389,12.516,124.479,12.207,124.479,11.85z M125.199,11.85c0,0.267,0.091,0.534,0.227,0.757
			c0.128,0.222,0.31,0.444,0.583,0.58c0.264,0.131,0.491,0.222,0.755,0.222s0.491-0.045,0.756-0.177
			c0.236-0.136,0.455-0.313,0.546-0.58c0.127-0.222,0.182-0.489,0.182-0.757s-0.055-0.535-0.182-0.757
			c-0.137-0.222-0.31-0.449-0.546-0.58c-0.219-0.136-0.492-0.177-0.756-0.177s-0.537,0.086-0.755,0.222
			c-0.273,0.132-0.455,0.313-0.583,0.576C125.244,11.314,125.199,11.582,125.199,11.85z"/>
		<path fill="#818EB4" d="M124.972,4.185c0.272,0.222,0.491,0.404,0.637,0.625c0.127,0.222,0.218,0.399,0.31,0.621
			c0.036,0.181,0.091,0.403,0.091,0.671c0,0.621-0.228,1.115-0.674,1.469c-0.455,0.358-0.946,0.535-1.564,0.535
			c-0.455,0-0.855-0.091-1.165-0.268c-0.364-0.177-0.628-0.444-0.801-0.802c-0.183-0.354-0.318-0.711-0.318-1.115
			c0-0.444,0.136-0.889,0.409-1.292c0.264-0.399,0.664-0.711,1.247-0.934c0.536-0.222,1.246-0.313,2.057-0.313
			c1.164,0,2.102,0.222,2.775,0.712c0.673,0.494,1.027,1.16,1.027,2.053c0,0.576-0.136,1.069-0.409,1.337
			c-0.264,0.308-0.573,0.444-0.892,0.444h-0.036V7.081h0.036c0.137,0,0.273-0.091,0.4-0.222c0.146-0.177,0.182-0.403,0.182-0.711
			c0-0.358-0.127-0.716-0.354-0.984c-0.228-0.267-0.582-0.489-1.119-0.666c-0.491-0.177-1.028-0.268-1.61-0.268L124.972,4.185z
			 M122.159,5.88c0,0.354,0.137,0.667,0.446,0.934c0.31,0.268,0.71,0.358,1.165,0.358c0.445,0,0.846-0.136,1.109-0.404
			c0.273-0.267,0.41-0.58,0.41-0.934c0-0.403-0.137-0.757-0.446-1.024c-0.31-0.267-0.673-0.403-1.119-0.403
			c-0.264,0-0.537,0.045-0.81,0.182c-0.265,0.131-0.446,0.308-0.583,0.535C122.205,5.345,122.159,5.612,122.159,5.88z"/>
		<path fill="#818EB4" d="M128.957-0.583c0,0.757-0.364,1.382-1.028,1.872C127.255,1.778,126.318,2,125.199,2
			c-1.156,0-2.057-0.222-2.73-0.711c-0.664-0.49-1.028-1.115-1.028-1.872s0.364-1.382,1.028-1.872
			c0.674-0.489,1.574-0.711,2.73-0.711c1.164,0,2.056,0.222,2.729,0.711C128.593-1.966,128.957-1.34,128.957-0.583z M128.247-0.583
			c0-0.58-0.318-1.024-0.946-1.292c-0.619-0.268-1.347-0.399-2.147-0.399s-1.52,0.131-2.103,0.399
			c-0.628,0.267-0.937,0.711-0.937,1.292s0.309,1.024,0.937,1.292c0.628,0.267,1.338,0.403,2.103,0.403
			c0.801,0,1.528-0.136,2.147-0.403C127.929,0.441,128.247-0.003,128.247-0.583z"/>
	</g>
</g>
</svg>
